<svg width="2141" height="471" viewBox="0 0 2141 471" fill="none" xmlns="http://www.w3.org/2000/svg">
<path d="M15.4884 214.699C4.29262 248.286 16.0564 275.431 28.7389 306.835C31.6406 317.366 35.965 335.574 40.4485 345.662C44.882 355.638 60.5123 360.666 70.185 363.689C85.7292 368.547 100.836 376.315 113.326 386.03C137.083 404.508 155.992 429.301 182.66 444.116C199.208 453.31 226.46 453.478 245.06 453.823C278.658 454.445 310.918 449.28 344.284 446.119C393.419 441.464 446.748 438.401 495.894 444.116C548.313 450.211 603.439 445.503 656.132 445.503C723.86 445.503 791.549 445.195 859.202 445.195C896.092 445.195 932.965 447.968 969.828 447.968C1001.79 447.968 1033.71 446.704 1065.66 449.663C1143.76 456.894 1222.69 459.369 1301.09 459.369C1387.37 459.369 1472.46 461.664 1558.7 457.212C1640.85 452.973 1722.82 453.374 1804.76 444.27C1870.48 436.968 1939.78 434.779 2002.9 413.455C2047.67 398.329 2102.81 374.55 2119.84 326.865C2128.56 302.447 2130.86 276.694 2128.01 251.06C2124.22 216.977 2115.95 177.075 2103.2 145.211C2093.64 121.309 2070.79 104.703 2053.9 86.2002C2042.7 73.9361 2030.36 67.9932 2014.46 63.3972C1935.32 40.5355 1846.35 39.3996 1764.85 43.9837C1728.39 46.0348 1691.52 51.3793 1655 51.3793C1611.51 51.3793 1567.7 47.1318 1524.19 45.9867C1456.93 44.2167 1390.42 46.035 1323.28 51.0712C1250.72 56.5129 1177.66 57.3022 1105.11 54.6149C1086.62 53.9301 1069.87 59.202 1051.64 60.1616C1025.62 61.5311 1000.38 63.9018 974.296 61.3942C916.899 55.8753 862.02 59.035 805.276 45.5245C763.379 35.549 720.254 32.1558 678.626 22.4133C623.529 9.51802 570.017 9.16311 513.458 13.4769C475.554 16.368 430.536 26.9501 394.821 40.5941C353.693 56.3058 309.908 66.7824 267.401 78.0343C248.617 83.0065 229.233 84.2272 210.393 89.2817C190.419 94.6405 170.951 102.897 150.92 108.695C130.927 114.483 110.128 128.059 93.1421 139.818C75.4573 152.062 56.8377 160.456 42.6056 177.104C34.2802 186.844 19.6064 202.345 15.4884 214.699Z" fill="white" stroke="black" stroke-width="22" stroke-linecap="round"/>
<path d="M251.274 310.541C266.53 338.872 263.05 375.873 268.882 406.657C276.465 399.075 280.99 389.311 288.528 381.773C293.194 377.107 295.671 371.448 299.078 365.912C305.056 356.197 311.706 346.77 316.758 336.517C321.319 327.26 326.537 317.659 329.782 307.922C331.81 301.841 334.328 303.981 340.333 306.394C352.518 311.29 364.751 316.515 376.276 322.838C387.019 328.731 396.657 335.122 408.145 339.572C414.921 342.197 419.496 346.323 419.496 337.753C419.496 321.258 420.994 304.738 422.77 288.349C425.956 258.941 430.076 229.46 434.193 200.164C436.998 180.208 439.559 160.076 446.198 140.938C446.791 139.229 451.4 129.476 450.71 129.878C433.415 139.967 413.015 144.652 394.03 150.833C368.112 159.271 342.738 168.65 317.341 178.482C287.577 190.003 260.506 207.144 231.047 219.446C217.425 225.134 204.123 230.235 191.32 237.709C181.68 243.336 172.133 248.866 161.925 253.425C142.061 262.296 122.707 271.433 103.863 282.383C89.9847 290.447 100.347 287.966 110.266 287.476C125.318 286.733 140.18 285.302 155.159 287.549C177.7 290.93 200.48 293.397 223.189 295.334C229.589 295.88 241.237 294.22 247.345 296.935C251.307 298.696 249.455 307.162 251.274 310.541Z" fill="#EA0000" stroke="#EA0000" stroke-width="15" stroke-linecap="round"/>
<path d="M238.454 290.326C241.223 290.049 244.208 287.435 246.288 285.797C250.503 282.478 254.067 278.199 258.711 275.454C265.78 271.277 271.633 266 278.172 261.072C283.085 257.371 288.236 254.557 292.768 250.332C297.005 246.383 301.681 242.739 305.651 238.521C309.915 233.989 313.367 228.935 317.952 224.628C326.185 216.894 334.786 209.525 343.227 201.954C347.778 197.872 353.191 195.098 357.548 190.816C361.895 186.544 365.74 182.419 371.012 179.371C380.354 173.97 389.074 167.497 398.184 161.715C406.034 156.734 413.696 152.013 421.899 147.67C426.513 145.227 430.835 143.11 434.537 139.408" stroke="#EA0000" stroke-width="15" stroke-linecap="round"/>
<path d="M328.233 305.748C333.991 299.261 339.235 292.181 345.492 286.164C349.872 281.952 354.386 277.885 358.772 273.68C369.496 263.396 378.131 252.298 385.761 239.653C391.3 230.472 397.609 221.574 403.57 212.664C408.846 204.778 412.846 196.345 417.034 187.878C422.469 176.889 426.571 165.909 430.681 154.402C431.581 151.883 433.6 140.703 436.189 139.408" stroke="#EA0000" stroke-width="15" stroke-linecap="round"/>
<path d="M251.274 288.478C266.53 316.809 263.05 353.81 268.882 384.593C276.465 377.011 280.99 367.248 288.528 359.71C293.194 355.043 295.671 349.384 299.078 343.848C305.056 334.134 311.706 324.707 316.758 314.453C321.319 305.197 326.537 295.595 329.782 285.858C331.81 279.777 334.328 281.918 340.333 284.33C352.518 289.226 364.751 294.451 376.276 300.774C387.019 306.667 396.657 313.059 408.145 317.509C414.921 320.134 419.496 324.259 419.496 315.69C419.496 299.194 420.994 282.675 422.77 266.286C425.956 236.878 430.076 207.397 434.193 178.101C436.998 158.144 439.559 138.013 446.198 118.874C446.791 117.165 451.4 107.412 450.71 107.814C433.415 117.903 413.015 122.588 394.03 128.769C368.112 137.208 342.738 146.587 317.341 156.418C287.577 167.94 260.506 185.081 231.047 197.382C217.425 203.07 204.123 208.171 191.32 215.645C181.68 221.272 172.133 226.802 161.925 231.361C142.061 240.232 122.707 249.37 103.863 260.319C89.9847 268.384 100.347 265.902 110.266 265.413C125.318 264.669 140.18 263.239 155.159 265.485C177.7 268.867 200.48 271.333 223.189 273.271C229.589 273.817 241.237 272.156 247.345 274.871C251.307 276.632 249.455 285.099 251.274 288.478Z" fill="white" stroke="#2400FF" stroke-width="15" stroke-linecap="round"/>
<path d="M238.454 268.262C241.223 267.985 244.208 265.371 246.288 263.733C250.503 260.414 254.067 256.135 258.711 253.391C265.78 249.213 271.633 243.936 278.172 239.009C283.085 235.307 288.236 232.493 292.768 228.268C297.005 224.319 301.681 220.675 305.651 216.457C309.915 211.926 313.367 206.871 317.952 202.565C326.185 194.83 334.786 187.461 343.227 179.89C347.778 175.809 353.191 173.034 357.548 168.752C361.895 164.48 365.74 160.356 371.012 157.308C380.354 151.907 389.074 145.433 398.184 139.652C406.034 134.67 413.696 129.949 421.899 125.607C426.513 123.164 430.835 121.046 434.537 117.345" stroke="#2400FF" stroke-width="15" stroke-linecap="round"/>
<path d="M328.233 283.684C333.991 277.197 339.235 270.117 345.492 264.1C349.872 259.889 354.386 255.821 358.772 251.616C369.496 241.332 378.131 230.234 385.761 217.589C391.3 208.408 397.609 199.511 403.57 190.6C408.846 182.714 412.846 174.281 417.034 165.814C422.469 154.825 426.571 143.846 430.681 132.338C431.581 129.819 433.6 118.639 436.189 117.345" stroke="#2400FF" stroke-width="15" stroke-linecap="round"/>
<path d="M588.816 193.378H532.469V166.229H676.121V193.378H619.773V318.866H588.816V193.378ZM709.227 166.229H839.207V193.378H740.184V223.847H827.879V249.335H740.184V291.815H841.258V318.866H709.227V166.229ZM875.633 166.229H906.59V291.718H995.359V318.866H875.633V166.229ZM1025.44 166.229H1155.42V193.378H1056.39V223.847H1144.09V249.335H1056.39V291.815H1157.47V318.866H1025.44V166.229ZM1181.39 241.132C1181.39 230.39 1183.41 220.363 1187.45 211.054C1191.49 201.679 1197.38 193.541 1205.12 186.64C1212.87 179.738 1222.38 174.302 1233.64 170.331C1244.97 166.36 1257.92 164.374 1272.51 164.374C1277.78 164.374 1283.05 164.667 1288.33 165.253C1293.67 165.774 1298.91 166.62 1304.05 167.792C1309.26 168.964 1314.3 170.461 1319.19 172.284C1324.14 174.042 1328.82 176.158 1333.25 178.632L1318.99 202.069C1316.32 200.507 1313.3 199.107 1309.91 197.87C1306.52 196.568 1302.88 195.494 1298.97 194.647C1295.13 193.736 1291.13 193.052 1286.96 192.597C1282.86 192.141 1278.73 191.913 1274.56 191.913C1264.92 191.913 1256.33 193.15 1248.78 195.624C1241.23 198.033 1234.85 201.451 1229.64 205.878C1224.43 210.24 1220.46 215.481 1217.72 221.6C1214.99 227.72 1213.62 234.426 1213.62 241.718C1213.62 249.27 1215.05 256.203 1217.92 262.518C1220.78 268.834 1224.85 274.27 1230.12 278.827C1235.4 283.384 1241.78 286.965 1249.27 289.569C1256.75 292.108 1265.12 293.378 1274.36 293.378C1281.72 293.378 1288.46 292.564 1294.58 290.936C1300.7 289.244 1306.04 286.867 1310.59 283.807C1315.15 280.748 1318.86 277.069 1321.73 272.772C1324.59 268.41 1326.48 263.528 1327.39 258.124H1274.07V232.636H1355.22V232.733L1355.32 232.636C1356.95 240.448 1357.44 248.065 1356.79 255.487C1356.2 262.844 1354.51 269.81 1351.71 276.386C1348.97 282.896 1345.2 288.886 1340.38 294.354C1335.56 299.823 1329.8 304.543 1323.09 308.515C1316.39 312.421 1308.77 315.481 1300.24 317.694C1291.71 319.843 1282.37 320.917 1272.21 320.917C1258.02 320.917 1245.29 318.834 1234.03 314.667C1222.83 310.5 1213.33 304.804 1205.52 297.577C1197.7 290.35 1191.71 281.887 1187.55 272.186C1183.45 262.486 1181.39 252.134 1181.39 241.132ZM1391.84 166.229H1469.48C1481.2 166.229 1491.36 167.466 1499.95 169.94C1508.54 172.349 1515.67 175.865 1521.34 180.487C1527 185.11 1531.2 190.741 1533.93 197.382C1536.73 204.022 1538.13 211.542 1538.13 219.94C1538.13 225.604 1537.45 231.008 1536.08 236.151C1534.71 241.229 1532.6 245.917 1529.73 250.214C1526.93 254.511 1523.39 258.352 1519.09 261.737C1514.79 265.057 1509.75 267.824 1503.95 270.038L1537.16 318.866H1499.27L1470.55 275.507H1469.68L1422.8 275.409V318.866H1391.84V166.229ZM1470.26 248.651C1476.12 248.651 1481.23 247.968 1485.59 246.6C1490.02 245.233 1493.7 243.313 1496.63 240.839C1499.62 238.365 1501.84 235.37 1503.27 231.854C1504.77 228.274 1505.52 224.302 1505.52 219.94C1505.52 211.412 1502.59 204.836 1496.73 200.214C1490.87 195.526 1482.05 193.182 1470.26 193.182H1422.8V248.651H1470.26ZM1626.9 166.229H1659.71L1733.54 318.866H1701.02L1688.82 293.182H1599.66L1587.84 318.866H1555.22L1626.9 166.229ZM1676.61 267.694L1643.6 198.358L1611.47 267.694H1676.61ZM1757.37 166.229H1788.33L1843.8 221.893L1899.27 166.229H1930.22V318.866H1899.27V209.1L1843.8 262.518L1788.33 209.1V318.866H1757.37V166.229Z" fill="black"/>
</svg>
