<svg width="1808" height="471" viewBox="0 0 1808 471" fill="none" xmlns="http://www.w3.org/2000/svg">
<path d="M14.7846 214.717C5.34446 248.307 15.2634 275.454 25.9571 306.861C28.4038 317.393 32.0501 335.603 35.8305 345.692C39.5687 355.668 52.7479 360.697 60.9037 363.72C74.0104 368.578 86.7479 376.347 97.2794 386.063C117.311 404.542 133.254 429.337 155.74 444.154C169.694 453.349 192.672 453.517 208.355 453.862C236.684 454.484 263.886 449.319 292.019 446.157C333.449 441.502 378.415 438.439 419.854 444.154C464.053 450.25 510.534 445.541 554.964 445.541C612.071 445.541 669.145 445.233 726.189 445.233C757.294 445.233 788.385 448.006 819.467 448.006C846.416 448.006 873.331 446.742 900.273 449.701C966.121 456.933 1032.67 459.409 1098.78 459.409C1171.53 459.409 1243.28 461.703 1315.99 457.252C1385.26 453.012 1454.38 453.413 1523.47 444.308C1578.88 437.006 1637.32 434.816 1690.53 413.491C1728.29 398.363 1774.78 374.582 1789.14 326.893C1796.49 302.473 1798.43 276.717 1796.02 251.081C1792.83 216.995 1785.86 177.09 1775.11 145.223C1767.05 121.319 1747.78 104.711 1733.54 86.2068C1724.09 73.9416 1713.69 67.9982 1700.28 63.4018C1633.55 40.5381 1558.53 39.4021 1489.82 43.9866C1459.07 46.0379 1427.98 51.3829 1397.19 51.3829C1360.52 51.3829 1323.58 47.135 1286.89 45.9898C1230.18 44.2196 1174.11 46.0381 1117.49 51.0747C1056.31 56.5169 994.709 57.3063 933.531 54.6187C917.94 53.9338 903.824 59.2062 888.451 60.1659C866.511 61.5355 845.224 63.9065 823.234 61.3986C774.838 55.8792 728.565 59.0393 680.719 45.5275C645.393 35.5511 609.03 32.1576 573.931 22.4143C527.473 9.51789 482.353 9.16295 434.664 13.4771C402.703 16.3684 364.745 26.9515 334.631 40.5967C299.953 56.3098 263.034 66.7873 227.193 78.0402C211.354 83.0128 195.01 84.2336 179.125 89.2886C162.283 94.6479 145.868 102.905 128.978 108.704C112.12 114.492 94.5831 128.069 80.2608 139.83C65.3493 152.074 49.6495 160.469 37.6493 177.119C30.6294 186.859 18.2567 202.362 14.7846 214.717Z" fill="white" stroke="black" stroke-width="22" stroke-linecap="round"/>
<path d="M588.816 193.378H532.469V166.229H676.121V193.378H619.773V318.866H588.816V193.378ZM689.5 166.229H723.289L764.695 264.765L774.266 288.593L781.785 264.765L797.02 228.827L769.578 166.229H801.414L812.645 196.015L823.094 166.229H854.93L827.488 228.827L843.016 265.546L852.391 288.593L859.617 265.155L901.219 166.229H935.008L867.625 318.866H836.961L823.387 288.593L812.352 259.198L801.316 288.593L787.547 318.866H756.883L689.5 166.229ZM954.734 166.229H985.887V318.866H954.734V166.229ZM1071.43 193.378H1015.09V166.229H1158.74V193.378H1102.39V318.866H1071.43V193.378ZM1237.84 193.378H1181.49V166.229H1325.14V193.378H1268.8V318.866H1237.84V193.378ZM1358.25 166.229H1488.23V193.378H1389.21V223.847H1476.9V249.335H1389.21V291.815H1490.28V318.866H1358.25V166.229ZM1524.66 166.229H1602.29C1614.01 166.229 1624.17 167.466 1632.76 169.94C1641.36 172.349 1648.48 175.865 1654.15 180.487C1659.81 185.11 1664.01 190.741 1666.75 197.382C1669.55 204.022 1670.95 211.542 1670.95 219.94C1670.95 225.604 1670.26 231.008 1668.89 236.151C1667.53 241.229 1665.41 245.917 1662.55 250.214C1659.75 254.511 1656.2 258.352 1651.9 261.737C1647.61 265.057 1642.56 267.824 1636.77 270.038L1669.97 318.866H1632.08L1603.37 275.507H1602.49L1555.61 275.409V318.866H1524.66V166.229ZM1603.07 248.651C1608.93 248.651 1614.04 247.968 1618.41 246.6C1622.83 245.233 1626.51 243.313 1629.44 240.839C1632.44 238.365 1634.65 235.37 1636.08 231.854C1637.58 228.274 1638.33 224.302 1638.33 219.94C1638.33 211.412 1635.4 204.836 1629.54 200.214C1623.68 195.526 1614.86 193.182 1603.07 193.182H1555.61V248.651H1603.07Z" fill="black"/>
<path d="M225.821 357.999C241.755 347.669 255.849 332.58 269.4 319.507C284.916 304.539 301.66 291.34 317.447 276.711C325.785 268.985 334.974 262.119 342.991 254.057C352.939 244.054 359.501 231.177 369.354 221.261C380.887 209.653 395.922 202.735 407.348 191.298C414.847 183.791 423.384 176.956 429.087 167.889C429.533 167.178 432.929 162.207 432.712 163.066" stroke="#EA0000" stroke-width="61" stroke-linecap="round"/>
<path d="M248.033 150.202C244.732 152.821 239.727 156.645 237.1 160.607C236.489 161.085 235.88 161.519 235.284 161.816C232.591 163.155 234.896 164.849 232.05 165.991C230.926 166.442 234.248 174.095 234.679 175.418C236.318 180.453 237.119 185.593 239.368 190.529C242.358 197.091 246.061 203.582 249.433 209.971C258.718 227.564 267.435 245.08 277.665 262.218C289.26 281.64 297.958 302.207 308.604 322.138C318.846 341.312 329.431 360.239 339.573 379.458C341.592 383.284 343.504 381.154 346.834 380.039C351.894 378.344 357.391 378.596 362.639 378.185C378.77 376.922 394.61 378.467 410.739 377.753C413.18 377.645 435.386 376.171 434.364 373.021C433.489 370.329 431.591 367.635 430.186 365.185C419.197 346.021 409.881 326.165 397.156 307.971C382.684 287.281 368.983 266.881 358.228 243.948C353.514 233.897 346.971 225.206 341.731 215.476C332.961 199.194 326.804 181.065 319.887 163.954C315.126 152.177 310.046 141.363 302.75 130.991C301.141 128.703 299.077 126.753 297.515 124.453C297.422 124.318 296.762 122.807 296.721 122.844C291.657 127.427 281.682 129.069 275.625 132.231C265.999 137.256 256.533 143.457 248.033 150.202Z" fill="#EA0000"/>
<path d="M236.082 162.418C238.168 157.834 244.231 153.219 248.033 150.202C256.533 143.457 265.999 137.256 275.625 132.231C281.682 129.069 291.657 127.427 296.721 122.844C296.762 122.807 297.422 124.318 297.515 124.453C299.077 126.753 301.141 128.703 302.75 130.991C310.046 141.363 315.126 152.177 319.887 163.954C326.804 181.065 332.961 199.194 341.731 215.476C346.971 225.206 353.514 233.897 358.228 243.948C368.983 266.881 382.684 287.281 397.156 307.971C409.881 326.165 419.197 346.021 430.186 365.185C431.591 367.635 433.489 370.329 434.364 373.021C435.386 376.171 413.18 377.645 410.739 377.753C394.61 378.467 378.77 376.922 362.639 378.185C357.391 378.596 351.894 378.344 346.834 380.039C343.504 381.154 341.592 383.284 339.573 379.458C329.431 360.239 318.846 341.312 308.604 322.138C297.958 302.207 289.26 281.64 277.665 262.218C267.435 245.08 258.718 227.564 249.433 209.971C246.061 203.582 242.358 197.091 239.368 190.529C237.119 185.593 236.318 180.453 234.679 175.418C234.248 174.095 230.926 166.442 232.05 165.991C234.896 164.849 232.591 163.155 235.284 161.816C237.33 160.798 239.532 158.149 241.427 157.732" stroke="#EA0000" stroke-width="22" stroke-linecap="round"/>
<path d="M225.821 342.947C241.755 332.616 255.849 317.527 269.4 304.454C284.916 289.486 301.66 276.288 317.447 261.658C325.785 253.932 334.974 247.067 342.991 239.005C352.939 229.002 359.501 216.125 369.354 206.208C380.887 194.6 395.922 187.682 407.348 176.245C414.847 168.739 423.384 161.904 429.087 152.836C429.533 152.126 432.929 147.154 432.712 148.013" stroke="#2400FF" stroke-width="61" stroke-linecap="round"/>
<path d="M248.033 135.149C244.732 137.768 239.727 141.592 237.1 145.554C236.489 146.032 235.88 146.467 235.284 146.763C232.591 148.102 234.896 149.797 232.05 150.938C230.926 151.389 234.248 159.042 234.679 160.365C236.318 165.4 237.119 170.541 239.368 175.477C242.358 182.039 246.061 188.53 249.433 194.918C258.718 212.512 267.435 230.028 277.665 247.165C289.26 266.587 297.958 287.154 308.604 307.086C318.846 326.26 329.431 345.187 339.573 364.406C341.592 368.231 343.504 366.102 346.834 364.986C351.894 363.292 357.391 363.543 362.639 363.132C378.77 361.869 394.61 363.414 410.739 362.7C413.18 362.592 435.386 361.118 434.364 357.969C433.489 355.276 431.591 352.583 430.186 350.133C419.197 330.968 409.881 311.113 397.156 292.919C382.684 272.229 368.983 251.828 358.228 228.896C353.514 218.845 346.971 210.153 341.731 200.424C332.961 184.142 326.804 166.012 319.887 148.902C315.126 137.125 310.046 126.31 302.75 115.939C301.141 113.651 299.077 111.7 297.515 109.401C297.422 109.265 296.762 107.754 296.721 107.792C291.657 112.374 281.682 114.016 275.625 117.178C265.999 122.203 256.533 128.405 248.033 135.149Z" fill="white"/>
<path d="M236.082 147.365C238.168 142.781 244.231 138.166 248.033 135.149C256.533 128.405 265.999 122.203 275.625 117.178C281.682 114.016 291.657 112.374 296.721 107.792C296.762 107.754 297.422 109.265 297.515 109.401C299.077 111.7 301.141 113.651 302.75 115.939C310.046 126.31 315.126 137.125 319.887 148.902C326.804 166.012 332.961 184.142 341.731 200.424C346.971 210.153 353.514 218.845 358.228 228.896C368.983 251.828 382.684 272.229 397.156 292.919C409.881 311.113 419.197 330.968 430.186 350.133C431.591 352.583 433.489 355.276 434.364 357.969C435.386 361.118 413.18 362.592 410.739 362.7C394.61 363.414 378.77 361.869 362.639 363.132C357.391 363.543 351.894 363.292 346.834 364.986C343.504 366.102 341.592 368.231 339.573 364.406C329.431 345.187 318.846 326.26 308.604 307.086C297.958 287.154 289.26 266.587 277.665 247.165C267.435 230.028 258.718 212.512 249.433 194.918C246.061 188.53 242.358 182.039 239.368 175.477C237.119 170.541 236.318 165.4 234.679 160.365C234.248 159.042 230.926 151.389 232.05 150.938C234.896 149.797 232.591 148.102 235.284 146.763C237.33 145.746 239.532 143.096 241.427 142.68" stroke="#2400FF" stroke-width="22" stroke-linecap="round"/>
</svg>
